<!-- from Théo-Net CC-BY 4.0 -->
<?xml version="1.0" encoding="UTF-8" standalone="no"?>
<svg
   xmlns:dc="http://purl.org/dc/elements/1.1/"
   xmlns:cc="http://creativecommons.org/ns#"
   xmlns:rdf="http://www.w3.org/1999/02/22-rdf-syntax-ns#"
   xmlns:svg="http://www.w3.org/2000/svg"
   xmlns="http://www.w3.org/2000/svg"
   version="1.1"
   id="svg2"
   height="538.38922"
   width="1657.2102">
   <defs
     id="defs4" />
  <metadata
     id="metadata7">
    <rdf:RDF>
      <cc:Work
         rdf:about="">
        <dc:format>image/svg+xml</dc:format>
        <dc:type
           rdf:resource="http://purl.org/dc/dcmitype/StillImage" />
        <dc:title />
      </cc:Work>
    </rdf:RDF>
  </metadata>
  <g
     id="text"
     style="font-style:normal;font-variant:normal;font-weight:normal;font-stretch:normal;font-size:474.05984497px;line-height:125%;font-family:'Lobster 1.4';-inkscape-font-specification:'Lobster 1.4, Normal';text-align:start;letter-spacing:0px;word-spacing:0px;writing-mode:lr-tb;text-anchor:start;display:inline;fill:#000000;fill-opacity:1;stroke:none;stroke-width:1px;stroke-linecap:butt;stroke-linejoin:miter;stroke-opacity:1"
     transform="translate(9.99939,90.000233)">
    <path
       id="path3431"
       d="m 1604.9747,137.47712 28.4436,0 3.7925,-18.96239 -28.4436,0 c 9.0071,-42.665387 16.118,-74.901457 16.118,-74.901457 l -70.1609,9.481197 -14.2218,65.42026 -15.6439,0 -3.7925,18.96239 15.644,0 -30.3399,142.21796 c -1.8962,8.53307 -2.8443,17.06615 -2.8443,25.12517 0,30.33983 14.2218,53.56876 47.406,53.56876 16.118,0 36.9766,-5.68872 50.2503,-46.45786 -3.7925,1.42217 -9.0071,1.42217 -12.3255,1.42217 -12.7997,0 -16.5921,-7.11089 -16.5921,-17.06615 0,-5.21466 0.9481,-10.90338 2.3703,-16.59209 l 30.3398,-142.21796 z m -217.0084,141.26984 c 0,-5.68872 0.4741,-12.32556 0.9482,-18.9624 56.8871,-3.31842 109.0337,-45.50974 109.0337,-100.02662 0,-23.703 -9.9552,-45.50975 -52.1466,-45.50975 -97.1822,0 -127.9961,114.24842 -127.9961,168.7653 0,53.56877 29.3917,75.37552 73.9533,75.37552 63.05,0 103.3451,-44.08757 130.3665,-87.70107 l -16.1181,0 c -23.703,27.02141 -46.4578,47.88004 -83.9086,47.88004 -22.7548,0 -34.1323,-7.58495 -34.1323,-39.82102 z m 73.4793,-119.93714 c 0,39.34696 -32.2361,75.84957 -68.7387,78.21987 9.4812,-46.93192 32.7102,-97.65633 56.8872,-97.65633 9.0072,0 11.8515,7.58496 11.8515,19.43646 z M 1277.5253,0.947887 1225.8527,257.88832 1188.402,6.6366051 c -13.7477,-6.63683779056 -29.8658,-6.63683779056 -44.0875,-6.63683779056 -81.5383,0 -134.159,69.21273769056 -134.159,123.25556269056 0,34.13231 18.0143,45.9838 50.7244,45.9838 -0.474,-4.26654 -6.6368,-8.05902 -6.6368,-32.23607 0,-50.250341 24.6511,-86.278889 65.8943,-103.345044 l -68.2646,321.886634 68.2646,0 52.6206,-247.9333 40.2951,247.9333 57.3613,0 75.3755,-354.596763 -68.2646,0 z m -294.89492,211.904753 -94.81197,0 -8.53307,37.45073 95.28602,0 8.05902,-37.45073 z M 761.56293,114.24819 c -97.65632,0 -128.47021,113.77436 -128.47021,168.29124 0,54.04283 31.76201,74.90146 75.84957,74.90146 59.73154,0 107.13753,-57.36124 112.82624,-148.38073 25.12518,-13.74774 39.34697,-43.13945 48.82817,-63.52402 l -15.16992,0 c -5.21466,9.00714 -17.06615,29.39171 -33.65825,32.71013 -2.84436,-42.19133 -22.75487,-63.99808 -60.2056,-63.99808 z M 727.90468,314.7755 c -18.01427,0 -24.17705,-7.11089 -24.17705,-38.39884 0,-46.45787 27.96953,-133.21082 61.62778,-133.21082 11.8515,0 17.06616,7.1109 18.01428,27.02141 -8.05902,3.79248 -13.27368,11.8515 -13.27368,24.65111 0,11.8515 3.79248,18.48834 11.37744,21.3327 -7.1109,55.93906 -30.33983,98.60444 -53.56877,98.60444 z M 521.32572,278.74696 c 0,-5.68872 0.47406,-12.32556 0.94812,-18.9624 56.88718,-3.31842 109.03376,-45.50974 109.03376,-100.02662 0,-23.703 -9.95526,-45.50975 -52.14658,-45.50975 -97.18227,0 -127.99616,114.24842 -127.99616,168.7653 0,53.56877 29.39171,75.37552 73.95333,75.37552 63.04996,0 103.34505,-44.08757 130.36646,-87.70107 l -16.11803,0 c -23.703,27.02141 -46.45787,47.88004 -83.9086,47.88004 -22.75487,0 -34.1323,-7.58495 -34.1323,-39.82102 z m 73.47927,-119.93714 c 0,39.34696 -32.23607,75.84957 -68.73868,78.21987 9.4812,-46.93192 32.71013,-97.65633 56.88719,-97.65633 9.00713,0 11.85149,7.58496 11.85149,19.43646 z m -45.50974,-69.212742 35.55449,0 57.36124,-89.59731069056 -49.77629,0 L 549.29525,89.597078 Z M 44.088175,137.47712 c 0,-74.427393 42.191326,-94.811967 95.286025,-96.708206 l -67.790554,314.775736 68.264614,0 66.84244,-310.509197 c 21.80675,2.844359 43.13945,6.636837 62.5759,8.059017 l -64.9462,302.45018 68.26462,0 c 11.37744,-63.04996 20.85863,-113.77436 28.91765,-155.01757 7.1109,-22.28081 19.43645,-40.76914 36.02855,-40.76914 11.37743,0 17.06615,8.53307 17.06615,24.17705 0,30.33983 -21.33269,88.64919 -21.33269,120.88526 0,27.02141 14.69586,53.56876 55.93906,53.56876 25.12517,0 61.62778,-9.95526 88.17513,-87.70107 l -19.91051,0 c -10.42932,24.65111 -18.96239,41.71727 -39.82103,41.71727 -14.22179,0 -18.96239,-8.05902 -18.96239,-19.91052 0,-26.54735 22.75487,-83.90859 22.75487,-122.30744 0,-37.92479 -22.28081,-53.56876 -52.62064,-53.56876 -15.16992,0 -36.02855,4.26654 -56.41312,27.49547 C 334.2128,36.028316 340.84964,22.28058 352.22707,1.4219468 338.9534,9.9550241 318.09477,12.799383 294.86583,12.799383 246.51173,12.799383 188.67643,0.47382715 166.86967,0.47382715 49.776893,0.47382715 6.0906982e-4,60.679427 6.0906982e-4,123.72939 c 0,34.13231 18.01427393018,45.9838 50.72440293018,45.9838 -0.474059,-4.26654 -6.636837,-8.05902 -6.636837,-32.23607 z" />
  </g>
</svg>
