<!-- from Théo-Net CC-BY 4.0 -->
<?xml version="1.0" encoding="UTF-8" standalone="no"?>
<svg
   xmlns:dc="http://purl.org/dc/elements/1.1/"
   xmlns:cc="http://creativecommons.org/ns#"
   xmlns:rdf="http://www.w3.org/1999/02/22-rdf-syntax-ns#"
   xmlns:svg="http://www.w3.org/2000/svg"
   xmlns="http://www.w3.org/2000/svg"
   width="560.45648"
   height="556.92682"
   id="svg2"
   version="1.1">
  <defs
     id="defs4" />
  <metadata
     id="metadata7">
    <rdf:RDF>
      <cc:Work
         rdf:about="">
        <dc:format>image/svg+xml</dc:format>
        <dc:type
           rdf:resource="http://purl.org/dc/dcmitype/StillImage" />
        <dc:title />
      </cc:Work>
    </rdf:RDF>
  </metadata>
  <g
     transform="translate(-138.41264,-190.6411)"
     id="g1">
    <path
       d="M 419.92375,194.07856 C 239.78833,186.96412 93.173393,383.08157 153.16693,553.5381 200.73353,727.98656 432.24393,807.43851 577.588,700.54216 730.73881,605.06189 739.54631,360.30316 593.49441,254.19728 544.55553,215.41261 482.34753,193.92941 419.92375,194.07856 Z m 0,57.31639 C 562.84845,245.74958 679.17622,401.35473 631.57617,536.5997 593.83612,675.01216 410.14901,738.05162 294.8293,653.2367 173.31632,577.47983 166.32834,383.28265 282.20867,299.09514 c 38.8292,-30.77288 88.1865,-47.81837 137.71508,-47.70019 z m 23.7698,38.98687 c -36.05613,8.30196 -66.94745,44.34329 -76.38281,74.20117 2.932,4.16668 5.00113,8.76554 5.14648,14.13086 2.18028,-0.43735 4.43832,-0.20189 6.58984,0.28125 8.32239,3.76868 16.9192,-1.35762 25.5586,-0.33203 3.63605,1.37331 7.73655,0.44937 11.57031,0.55664 2.0262,0.0613 2.51738,0.12072 5.97266,1.56055 3.64132,-7.2561 2.78424,-7.96317 9.32422,-20.98828 2.19734,-3.26378 4.60603,-6.40663 6.99609,-8.64063 4.72212,-4.26621 10.75907,-6.05922 16.99609,-5.24023 15.87433,2.46689 15.24618,19.9798 14.24219,33.85742 -0.14653,2.0174 -0.36219,4.07848 -0.62109,6.12695 14.9386,15.84908 24.89835,36.6294 27.93359,58.09375 7.71049,47.88476 -24.61768,97.00977 -69.74414,112.64453 -0.239,11.55945 -1.46729,23.0212 -5.21875,34.20508 -13.27129,-8.02575 -25.80962,-18.56599 -35.14062,-31.22851 -1.05148,0.43754 -2.21163,0.68704 -3.47071,0.67578 -9.48775,0.0332 -18.77988,-2.23251 -27.58398,-5.8125 -1.59808,5.98464 -2.20213,12.2083 -2.33399,18.35546 5.93826,36.11971 11.36568,64.9847 30.67383,92.71876 3.66018,4.89995 7.58728,9.74241 11.68164,14.51367 3.81197,0.3971 7.63459,0.70305 11.46485,0.88281 45.23877,2.78793 90.55543,-10.62697 127.92968,-35.82031 -9.83392,-3.59251 -18.80512,-9.71373 -25.22851,-17.90039 -12.47835,-17.3301 -10.70697,-39.82029 -12.66602,-59.78321 -0.88759,-13.60323 -6.24664,-26.22808 -8.84179,-39.45898 -3.68965,-18.93931 5.35663,-40.30562 23.31835,-48.49219 3.12539,-1.91588 6.87471,-2.88865 10.58399,-3.88867 0.45885,-20.85266 3.62672,-43.17298 6.79687,-71.25586 2.29653,-28.07972 -0.13275,-60.03469 -17.37304,-82.02344 -17.24029,-21.98875 -42.67076,-31.26497 -68.17383,-31.93945 z m -12.00586,83.52734 c -4.67969,7.00245 5.326,12.57328 4.20826,20.63254 0.67689,15.76 19.44196,21.70724 22.42023,37.29888 14.78206,32.6581 -3.53756,71.71359 -31.83229,88.64876 2.20734,7.55245 -4.92895,30.42382 9.11834,19.09952 53.87782,-24.90535 67.50687,-104.15238 24.73575,-145.44896 -8.13621,-8.49666 -17.92308,-15.40611 -28.65029,-20.23074 z m -92.41211,9.88477 c -50.2667,34.0859 -49.04507,116.91907 2.25894,149.45856 11.41162,7.90384 24.64097,13.16491 38.3602,15.26214 -7.19478,-8.26187 -3.43833,-24.43472 -14.34249,-27.34536 -40.77616,-16.4447 -54.60595,-73.94993 -25.56373,-107.0355 -0.9793,-10.12138 0.94885,-20.23857 -0.71292,-30.33984 z m 50.29435,157.728 c -2.5818,-5.53029 -3.58265,-7.48021 -5.68568,-18.27622 -1.58112,-14.00299 -3.09732,-19.55058 -12.09012,-29.98581 l 3.601,1.8162 c 6.202,3.12805 14.04816,4.72268 21.20277,4.30919 7.73455,-0.44702 11.28962,-2.1647 16.93984,-8.18476 l 3.5479,-3.78013 c -4.62866,20.08557 -2.61537,32.99883 -2.15662,47.01255 0.92069,27.66381 0.40664,30.20206 -0.64834,36.19339 -11.99958,-9.16349 -18.95389,-19.37441 -24.71075,-29.10441 z m -5.07788,-48.22291 c -8.7311,-2.57536 -14.57991,-6.5398 -19.90964,-13.49516 -8.26511,-10.7861 -10.19502,-21.25221 -13.31044,-72.18384 0.20633,-22.77362 2.13338,-30.67672 -8.71176,-59.27201 10.19554,6.92217 22.42066,22.56725 23.06121,24.79588 0.63639,1.29304 0.94408,14.76868 0.94408,14.76868 0.56602,16.78246 1.18099,29.08847 7.25071,60.1076 2.50017,12.77706 2.43766,13.5068 6.02901,17.87597 6.34637,7.72089 11.62157,8.86735 5.41609,-1.73558 0.23359,-0.33335 0.7857,-0.68114 4.45602,-6.3472 2.64584,-4.0845 3.6556,-5.9524 3.09304,-10.32264 -0.43661,-3.39177 -0.64021,-3.93944 -4.88391,-6.07693 -3.30882,-1.66661 -8.17344,-1.64327 -10.11472,-1.12498 -3.29398,-16.41281 -5.14464,-34.23464 -6.28627,-51.32966 -0.56535,-4.39006 -0.89633,-6.36856 14.12928,-2.02707 1.15204,0.24632 3.95357,-0.18164 6.2256,-0.95112 3.18003,-1.07694 5.88189,-1.60862 13.29218,-1.13919 5.29444,0.33535 5.40056,1.89653 9.34335,0.45817 2.29504,-0.83724 3.62458,-0.42324 7.93547,4.22465 1.95079,2.10329 1.34911,6.36889 1.59397,10.21971 0.20168,3.17194 2.1935,9.00875 3.37262,13.42429 5.76347,21.58301 2.69073,48.15609 -7.43982,64.33969 -4.89511,5.55203 -9.60431,11.72418 -16.36408,14.63869 -5.31077,2.19478 -13.84352,2.70889 -19.12153,1.15211 z M 326.04902,335.92869 c -0.40991,-0.0154 -1.24575,0.0216 -4.27735,0.16016 -7.97049,2.6671 -10.98629,3.00723 -20.15625,9.01758 -9.99401,6.55046 -13.70019,9.7636 -24.24414,21.01758 -15.02298,16.03462 -19.532,22.46797 -23.07617,32.92773 -1.48451,4.38118 -5.12023,12.7892 -8.08008,18.68555 -2.95985,5.89635 -6.51812,14.00909 -7.90625,18.02929 -3.02325,8.75586 -5.50376,28.30161 -5.50976,43.41016 -0.003,8.96313 -0.555,12.87657 -3.42578,24.32617 -4.70589,18.76863 -6.13952,36.55615 -4.375,50.94532 4.12237,9.68759 8.96456,19.08002 14.53906,28.04687 19.4958,32.3284 48.39137,58.16946 81.79687,75.28906 1.68023,-2.04489 3.32523,-4.20468 5.05469,-6.6289 3.63288,-5.0923 9.4997,-12.45351 13.03711,-16.35742 3.53741,-3.90398 6.43164,-7.71275 6.43164,-8.46485 0,-0.25589 2.3393,-1.96191 5.28125,-4.23242 -1.68104,-5.79241 -3.09812,-11.65927 -4.23828,-17.56641 -4.60965,-17.71389 -7.25837,-37.56278 -2.14844,-55.35742 -2.7806,-1.51382 -5.49407,-3.12441 -8.12695,-4.80078 -36.97134,-23.87531 -55.9591,-72.85319 -42.74609,-115.14258 6.83267,-24.05305 22.82496,-44.48102 42.86328,-59.13086 -2.96647,-12.39995 -5.67076,-22.25382 -10.35938,-34.14258 -0.10778,-0.0153 -0.19735,-0.0261 -0.33398,-0.0312 z m 253.07812,4.6836 c -5.44351,4.56884 -9.29695,11.18108 -10.9414,18.93945 -1.8367,8.6652 -1.40041,26.28658 0.80859,32.70703 2.461,7.15307 3.94417,20.72591 2.88477,26.39649 -1.0183,5.45082 -2.72682,8.81133 -8.38282,16.48632 -6.94023,8.71079 -10.92169,18.95456 -15.28906,37.42969 -3.5061,6.78004 -14.11811,13.49545 -23.29101,14.74024 -8.86372,1.20284 -18.18298,9.11443 -22.91797,19.45703 -2.22887,4.86849 -2.37945,6.06169 -1.82618,14.48437 0.42575,6.48159 1.48757,11.75216 3.61133,17.9375 4.06474,11.83841 5.76724,24.38672 5.80274,33.12305 0.0339,8.3349 2.67014,32.10285 5.8789,40.69922 3.52343,9.43942 13.35369,17.33865 27.17969,21.8418 1.76446,0.57469 3.38074,1.01355 4.88672,1.34375 14.32842,-11.21647 27.22935,-24.25469 38.14453,-38.86329 43.41805,-56.39854 53.07067,-135.41151 26.51953,-201.20898 -7.8324,-20.32311 -19.15054,-39.0048 -33.06836,-55.51367 z"
       style="fill:#000000"
       id="logo" />
  </g>
</svg>
